<?xml version="1.0" encoding="UTF-8"?>
<!DOCTYPE svg PUBLIC "-//W3C//DTD SVG 1.1//EN" "http://www.w3.org/Graphics/SVG/1.1/DTD/svg11.dtd">
<svg xmlns="http://www.w3.org/2000/svg" version="1.1" width="1600px" height="700px" style="shape-rendering:geometricPrecision; text-rendering:geometricPrecision; image-rendering:optimizeQuality; fill-rule:evenodd; clip-rule:evenodd" xmlns:xlink="http://www.w3.org/1999/xlink">
<g><path style="opacity:0.979" fill="#9bee68" d="M 1039.5,26.5 C 1081.87,26.0275 1124.21,26.5275 1166.5,28C 1185.68,35.8563 1193.18,50.023 1189,70.5C 1184.96,83.2085 1176.46,91.0419 1163.5,94C 1120.45,94.9783 1077.45,94.645 1034.5,93C 1015.64,85.4613 1008.14,71.628 1012,51.5C 1016.64,38.0253 1025.8,29.692 1039.5,26.5 Z"/></g>
<g><path style="opacity:0.994" fill="#9bee68" d="M 67.5,123.5 C 158.833,123.5 250.167,123.5 341.5,123.5C 341.667,151.169 341.5,178.835 341,206.5C 302.833,244.667 264.667,282.833 226.5,321C 264.832,321.5 303.165,321.667 341.5,321.5C 341.5,354.833 341.5,388.167 341.5,421.5C 250.167,421.5 158.833,421.5 67.5,421.5C 67.3334,393.498 67.5,365.498 68,337.5C 105.833,299.667 143.667,261.833 181.5,224C 143.501,223.5 105.501,223.333 67.5,223.5C 67.5,190.167 67.5,156.833 67.5,123.5 Z"/></g>
<g><path style="opacity:0.991" fill="#fefffe" d="M 365.5,123.5 C 398.833,123.5 432.167,123.5 465.5,123.5C 465.333,179.501 465.5,235.501 466,291.5C 473.214,315.196 489.047,324.696 513.5,320C 525.833,315.001 533.999,306.168 538,293.5C 539.475,236.866 539.975,180.199 539.5,123.5C 572.833,123.5 606.167,123.5 639.5,123.5C 639.667,181.168 639.5,238.834 639,296.5C 631.714,355.456 600.214,395.289 544.5,416C 469.744,433.859 413.911,409.359 377,342.5C 371.295,329.384 367.628,315.717 366,301.5C 365.5,242.168 365.333,182.834 365.5,123.5 Z"/></g>
<g><path style="opacity:0.988" fill="#fefffe" d="M 783.5,123.5 C 842.675,119.004 887.842,141.67 919,191.5C 929.179,209.881 935.179,229.548 937,250.5C 937.787,266.199 937.62,281.865 936.5,297.5C 879.499,297.333 822.499,297.5 765.5,298C 770.929,310.43 780.263,318.097 793.5,321C 839.837,321.167 886.17,321.667 932.5,322.5C 917.368,370.132 886.034,401.632 838.5,417C 773.65,431.949 722.15,412.449 684,358.5C 674.713,342.976 668.38,326.309 665,308.5C 663.413,286.533 663.08,264.533 664,242.5C 673.505,186.309 705.005,148.475 758.5,129C 766.877,126.722 775.21,124.889 783.5,123.5 Z M 793.5,223.5 C 811.818,221.989 825.152,229.322 833.5,245.5C 811.167,246.833 788.833,246.833 766.5,245.5C 771.991,233.659 780.991,226.325 793.5,223.5 Z"/></g>
<g><path style="opacity:0.991" fill="#fefffe" d="M 1080.5,123.5 C 1140.73,119.196 1186.56,142.53 1218,193.5C 1227.18,210.704 1232.51,229.038 1234,248.5C 1234.5,306.166 1234.67,363.832 1234.5,421.5C 1201.17,421.5 1167.83,421.5 1134.5,421.5C 1134.98,364.801 1134.48,308.134 1133,251.5C 1125.02,229.591 1109.52,220.758 1086.5,225C 1072.72,229.777 1064.22,239.277 1061,253.5C 1060.5,309.499 1060.33,365.499 1060.5,421.5C 1027.17,421.5 993.833,421.5 960.5,421.5C 960.333,361.832 960.5,302.166 961,242.5C 969.17,190.998 997.003,154.498 1044.5,133C 1056.29,128.553 1068.29,125.387 1080.5,123.5 Z"/></g>
<g><path style="opacity:0.989" fill="#fefffe" d="M 1378.5,123.5 C 1438.73,119.196 1484.56,142.53 1516,193.5C 1528.93,218.234 1534.43,244.567 1532.5,272.5C 1534.78,337.474 1506.78,383.974 1448.5,412C 1425.61,420.82 1401.94,423.82 1377.5,421C 1334.68,414.848 1301.52,393.681 1278,357.5C 1262.33,331.159 1255.83,302.659 1258.5,272C 1255.33,215.673 1277.33,172.34 1324.5,142C 1341.33,132.114 1359.33,125.947 1378.5,123.5 Z M 1388.5,223.5 C 1412.86,222.367 1427.36,233.7 1432,257.5C 1433.11,270.945 1432.44,284.278 1430,297.5C 1416.43,322.353 1397.26,327.853 1372.5,314C 1365.31,308.132 1360.81,300.632 1359,291.5C 1358.33,278.833 1358.33,266.167 1359,253.5C 1363.02,237.652 1372.85,227.652 1388.5,223.5 Z"/></g>
<g><path style="opacity:0.935" fill="#fefffe" d="M 194.5,487.5 C 212.008,484.847 219.842,492.18 218,509.5C 211.317,519.28 202.484,521.78 191.5,517C 183.522,511.055 181.688,503.555 186,494.5C 188.441,491.546 191.275,489.213 194.5,487.5 Z"/></g>
<g><path style="opacity:0.967" fill="#fefffe" d="M 300.5,497.5 C 310.167,497.5 319.833,497.5 329.5,497.5C 329.5,539.5 329.5,581.5 329.5,623.5C 319.833,623.5 310.167,623.5 300.5,623.5C 300.666,619.486 300.499,615.486 300,611.5C 289.206,623.133 276.04,626.966 260.5,623C 247.118,618.619 237.951,609.786 233,596.5C 226.741,576.985 229.075,558.651 240,541.5C 255.62,525.111 273.453,522.278 293.5,533C 295.667,535.167 297.833,537.333 300,539.5C 300.5,525.504 300.667,511.504 300.5,497.5 Z M 277.5,552.5 C 292.04,553.22 299.706,560.887 300.5,575.5C 299.636,588.6 292.802,596.267 280,598.5C 263.804,594.472 257.471,584.138 261,567.5C 263.741,559.392 269.241,554.392 277.5,552.5 Z"/></g>
<g><path style="opacity:0.96" fill="#fefffe" d="M 76.5,503.5 C 94.8364,503.333 113.17,503.5 131.5,504C 163.021,508.868 174.521,526.701 166,557.5C 160.864,566.505 153.364,572.838 143.5,576.5C 152.374,591.749 161.374,606.916 170.5,622C 159.167,622.667 147.833,622.667 136.5,622C 128.54,607.914 120.706,593.747 113,579.5C 110.959,578.577 108.792,578.244 106.5,578.5C 106.5,593.167 106.5,607.833 106.5,622.5C 96.5,622.5 86.5,622.5 76.5,622.5C 76.5,582.833 76.5,543.167 76.5,503.5 Z M 106.5,528.5 C 114.585,528.099 122.585,528.599 130.5,530C 136.204,532.399 138.871,536.733 138.5,543C 138.718,549.114 136.051,553.447 130.5,556C 122.507,556.5 114.507,556.666 106.5,556.5C 106.5,547.167 106.5,537.833 106.5,528.5 Z"/></g>
<g><path style="opacity:0.955" fill="#fefffe" d="M 480.5,503.5 C 491.505,503.333 502.505,503.5 513.5,504C 521.382,519.645 528.882,535.478 536,551.5C 543.628,535.743 551.128,519.909 558.5,504C 569.495,503.5 580.495,503.333 591.5,503.5C 578.814,530.538 565.314,557.205 551,583.5C 550.5,596.829 550.333,610.163 550.5,623.5C 540.833,623.5 531.167,623.5 521.5,623.5C 521.667,610.163 521.5,596.829 521,583.5C 506.686,557.205 493.186,530.538 480.5,503.5 Z"/></g>
<g><path style="opacity:0.958" fill="#fefffe" d="M 931.5,503.5 C 948.503,503.333 965.503,503.5 982.5,504C 1017.96,507.79 1036.62,527.457 1038.5,563C 1038.16,596.007 1021.82,615.673 989.5,622C 970.191,623.307 950.857,623.807 931.5,623.5C 931.5,583.5 931.5,543.5 931.5,503.5 Z M 961.5,529.5 C 968.175,529.334 974.842,529.5 981.5,530C 999.48,533.823 1008.48,544.99 1008.5,563.5C 1008.63,580.443 1000.63,591.276 984.5,596C 976.875,597.142 969.208,597.642 961.5,597.5C 961.5,574.833 961.5,552.167 961.5,529.5 Z"/></g>
<g><path style="opacity:0.954" fill="#fefffe" d="M 385.5,526.5 C 423.636,525.967 441.636,544.634 439.5,582.5C 417.833,582.5 396.167,582.5 374.5,582.5C 377.472,598.275 386.472,603.108 401.5,597C 403.543,595.292 405.21,593.292 406.5,591C 416.828,590.5 427.161,590.334 437.5,590.5C 433.766,608.068 423.1,618.901 405.5,623C 386.486,627.29 369.986,622.79 356,609.5C 341.078,587.415 340.745,565.081 355,542.5C 363.374,533.565 373.54,528.232 385.5,526.5 Z M 389.5,550.5 C 400.688,549.737 407.355,554.737 409.5,565.5C 397.829,565.667 386.162,565.5 374.5,565C 376.789,557.208 381.789,552.375 389.5,550.5 Z"/></g>
<g><path style="opacity:0.956" fill="#fefffe" d="M 639.5,526.5 C 677.327,526.16 695.827,544.827 695,582.5C 691.055,606.779 676.888,620.612 652.5,624C 621.027,626.535 602.527,612.369 597,581.5C 595.367,550.701 609.534,532.367 639.5,526.5 Z M 642.5,552.5 C 657.082,553.082 664.749,560.749 665.5,575.5C 663.802,594.069 654.136,600.903 636.5,596C 632.072,592.908 629.239,588.741 628,583.5C 624.353,568.852 629.186,558.519 642.5,552.5 Z"/></g>
<g><path style="opacity:0.954" fill="#fefffe" d="M 1160.5,526.5 C 1198.64,525.967 1216.64,544.634 1214.5,582.5C 1192.83,582.5 1171.17,582.5 1149.5,582.5C 1152.47,598.275 1161.47,603.108 1176.5,597C 1178.54,595.292 1180.21,593.292 1181.5,591C 1191.83,590.5 1202.16,590.334 1212.5,590.5C 1208.77,608.068 1198.1,618.901 1180.5,623C 1161.49,627.29 1144.99,622.79 1131,609.5C 1116.08,587.415 1115.74,565.081 1130,542.5C 1138.37,533.565 1148.54,528.232 1160.5,526.5 Z M 1164.5,550.5 C 1175.69,549.737 1182.35,554.737 1184.5,565.5C 1172.83,565.667 1161.16,565.5 1149.5,565C 1151.79,557.208 1156.79,552.375 1164.5,550.5 Z"/></g>
<g><path style="opacity:0.965" fill="#fefffe" d="M 1259.5,526.5 C 1273.29,525.038 1284.79,529.371 1294,539.5C 1294.5,535.848 1294.67,532.182 1294.5,528.5C 1304.17,528.5 1313.83,528.5 1323.5,528.5C 1323.5,560.167 1323.5,591.833 1323.5,623.5C 1313.83,623.5 1304.17,623.5 1294.5,623.5C 1294.67,619.486 1294.5,615.486 1294,611.5C 1281.01,624.632 1265.84,627.799 1248.5,621C 1231.73,610.647 1223.4,595.48 1223.5,575.5C 1223.38,558.919 1229.38,545.086 1241.5,534C 1247.15,530.402 1253.15,527.902 1259.5,526.5 Z M 1271.5,552.5 C 1286.04,553.22 1293.71,560.887 1294.5,575.5C 1293.64,588.6 1286.8,596.267 1274,598.5C 1257.8,594.472 1251.47,584.138 1255,567.5C 1257.74,559.392 1263.24,554.392 1271.5,552.5 Z"/></g>
<g><path style="opacity:0.956" fill="#fefffe" d="M 873.5,527.5 C 876.5,527.5 879.5,527.5 882.5,527.5C 882.5,537.833 882.5,548.167 882.5,558.5C 875.326,558.012 868.326,558.845 861.5,561C 858.272,562.563 856.105,565.063 855,568.5C 853.539,586.765 853.039,605.098 853.5,623.5C 843.5,623.5 833.5,623.5 823.5,623.5C 823.5,591.833 823.5,560.167 823.5,528.5C 833.5,528.5 843.5,528.5 853.5,528.5C 853.334,532.846 853.501,537.179 854,541.5C 859.062,534.729 865.562,530.062 873.5,527.5 Z"/></g>
<g><path style="opacity:0.956" fill="#fefffe" d="M 1103.5,527.5 C 1106.5,527.5 1109.5,527.5 1112.5,527.5C 1112.5,537.833 1112.5,548.167 1112.5,558.5C 1105.33,558.012 1098.33,558.845 1091.5,561C 1088.27,562.563 1086.1,565.063 1085,568.5C 1083.54,586.765 1083.04,605.098 1083.5,623.5C 1073.5,623.5 1063.5,623.5 1053.5,623.5C 1053.5,591.833 1053.5,560.167 1053.5,528.5C 1063.5,528.5 1073.5,528.5 1083.5,528.5C 1083.33,532.846 1083.5,537.179 1084,541.5C 1089.06,534.729 1095.56,530.062 1103.5,527.5 Z"/></g>
<g><path style="opacity:0.958" fill="#fefffe" d="M 1390.5,527.5 C 1407.81,524.319 1421.65,529.653 1432,543.5C 1442.84,529.66 1457.01,524.494 1474.5,528C 1490.76,532.266 1499.93,542.766 1502,559.5C 1502.5,580.831 1502.67,602.164 1502.5,623.5C 1492.5,623.5 1482.5,623.5 1472.5,623.5C 1472.67,603.831 1472.5,584.164 1472,564.5C 1468.96,557.219 1463.46,553.219 1455.5,552.5C 1447.17,552.737 1441.67,556.737 1439,564.5C 1437.56,584.12 1437.06,603.787 1437.5,623.5C 1427.83,623.5 1418.17,623.5 1408.5,623.5C 1408.95,603.446 1408.45,583.446 1407,563.5C 1403.79,556.475 1398.29,552.808 1390.5,552.5C 1382.18,553.323 1376.68,557.656 1374,565.5C 1373.5,584.83 1373.33,604.164 1373.5,623.5C 1363.5,623.5 1353.5,623.5 1343.5,623.5C 1343.5,591.833 1343.5,560.167 1343.5,528.5C 1353.5,528.5 1363.5,528.5 1373.5,528.5C 1373.34,531.518 1373.5,534.518 1374,537.5C 1378.71,532.732 1384.21,529.399 1390.5,527.5 Z"/></g>
<g><path style="opacity:0.951" fill="#fefffe" d="M 186.5,528.5 C 196.5,528.5 206.5,528.5 216.5,528.5C 216.5,560.167 216.5,591.833 216.5,623.5C 206.5,623.5 196.5,623.5 186.5,623.5C 186.5,591.833 186.5,560.167 186.5,528.5 Z"/></g>
<g><path style="opacity:0.956" fill="#fefffe" d="M 708.5,528.5 C 718.5,528.5 728.5,528.5 738.5,528.5C 738.333,547.503 738.5,566.503 739,585.5C 742.57,596.538 750.07,600.705 761.5,598C 768.006,595.846 771.839,591.346 773,584.5C 773.5,565.836 773.667,547.17 773.5,528.5C 783.5,528.5 793.5,528.5 803.5,528.5C 803.5,560.167 803.5,591.833 803.5,623.5C 793.5,623.5 783.5,623.5 773.5,623.5C 773.665,619.818 773.499,616.152 773,612.5C 760.186,623.997 745.686,626.831 729.5,621C 717.068,614.647 710.235,604.48 709,590.5C 708.5,569.836 708.333,549.169 708.5,528.5 Z"/></g>
</svg>
